<?xml version="1.0" standalone="no"?><!DOCTYPE svg PUBLIC "-//W3C//DTD SVG 1.1//EN" "http://www.w3.org/Graphics/SVG/1.1/DTD/svg11.dtd"><svg t="1731841181215" class="icon" viewBox="0 0 1024 1024" version="1.1" xmlns="http://www.w3.org/2000/svg" p-id="18048" xmlns:xlink="http://www.w3.org/1999/xlink" width="20px" height="20px"><path d="M830.986031 837.850369l-21.504779-28.646433 129.027655-28.645411v-7.16212c-58.777685-82.506109-136.229684-116.227118-229.383294-164.716482-33.44881-76.381621-74.076112-152.786779-107.523899-229.169423C525.576203 258.558777 354.352517 105.84363 240.11573 133.707234c-2.049682 0.500397-2.743484-3.212158-4.093225-4.850471-21.589714-26.191522-43.641963-48.292889-129.028679-64.453964-11.945053 4.774747-23.895223 9.549493-35.841299 14.323217-8.960069 11.933797-11.948123 18.502399-14.33652 50.130747 19.465331 53.955866 56.356542 88.086198 78.849836 114.584712 3.190669 3.758604 1.663896 9.582239 2.571568 14.169721 15.109116 76.355015 44.008306 116.175953 76.278267 164.868954-56.492642 157.747767-24.52251 204.741058 21.50478 286.462291 17.321504 10.145058 28.674063 4.774747 43.008536 7.16212 29.059849-9.544377 28.637224-44.919049 35.8413-93.100398h7.16826c18.191314 58.577117 93.959975 144.292314 143.364175 171.876556-98.986455-116.964922-136.540769-195.072861-143.364175-243.491617h-7.16826c-42.61047 24.561395-38.026058 82.623789-43.008536 128.907929-0.417509 3.876284-6.671956 3.411703-7.16826 7.16212-88.587618-81.33033-35.546587-209.943546-23.683399-263.637446 1.397836-6.329149 5.164626-12.927427 2.178619-15.662725-25.900903-23.736611-67.862597-88.369653-82.294284-165.572989-0.598634-3.202948-0.097214-6.971785-2.104941-9.525958-26.226315-33.356712-67.715241-86.911442-73.300447-118.525463v-7.162121c54.073546-33.298384 121.807207 40.139186 129.027656 50.130748 92.585675-0.597611 86.023212 14.32424 129.028678 21.485337C444.673615 222.398206 549.661761 336.435449 594.434477 436.803367l83.052555 193.60851 2.966564 6.91448c9.151427 5.774517 17.448394 11.825326 26.219152 15.628955 36.149315 15.676028 38.4538 8.350179 59.798944 20.178575 50.294476 27.868721 96.294137 43.233664 136.195915 85.938278-44.783972 2.276856-111.603821 3.702322-150.532435 28.646434v7.161097c19.297508 35.658128 48.462758 63.069431 82.391499 86.597287 13.1853 9.143241 32.311917 12.599969 46.636157 20.825304 27.195386 15.617699 57.849546 42.306548 86.019119 57.292867-27.155477-47.788399-81.510432-94.390787-136.195916-121.744785zM293.368584 250.603595l-28.67304-28.645411h-21.504779c9.55768 14.32117 19.116383 28.647457 28.673039 42.969651v14.323217c7.167237-9.549493 14.33652-19.10001 21.50478-28.647457z" fill="#1F7DE0" p-id="18049"></path></svg>