<?xml version="1.0" standalone="no"?><!DOCTYPE svg PUBLIC "-//W3C//DTD SVG 1.1//EN" "http://www.w3.org/Graphics/SVG/1.1/DTD/svg11.dtd"><svg t="1731841895444" class="icon" viewBox="0 0 1025 1024" version="1.1" xmlns="http://www.w3.org/2000/svg" p-id="30825" xmlns:xlink="http://www.w3.org/1999/xlink" width="20px" height="20px"><path d="M28.104 860.256c-37.472 37.472-37.472 98.144 0 135.616 18.72 18.72 43.296 28.064 67.84 28.064s49.088-9.344 67.84-28.064l314.88-314.944-135.648-135.552-314.88 314.88z" fill="#444444" p-id="30826"></path><path d="M815.048 276.704l137.12-70.912 71.808-138.784-66.944-66.944-138.72 71.872-71.04 136.992-166.784 166.976 67.648 67.776z" fill="#444444" p-id="30827"></path><path d="M845.096 640.672l-12.928-1.28c-23.392 0-45.568 4.8-66.304 12.48l-393.632-393.696c7.68-20.704 12.48-42.912 12.48-66.304l-1.28-12.928c-6.784-99.808-88.992-178.88-190.528-178.88-29.536 0-57.216 7.232-82.208 19.168l127.424 127.424c6.72 6.72 11.328 14.656 14.4 23.008 8.384 22.624 3.84 49.088-14.4 67.392-12.48 12.48-28.832 18.72-45.184 18.72-7.552 0-15.04-1.664-22.176-4.352-8.384-3.2-16.288-7.68-23.008-14.464l-127.424-127.36c-11.968 24.992-19.168 52.672-19.168 82.208 0 101.536 79.072 183.744 178.88 190.528l12.928 1.28c23.392 0 45.6-4.8 66.304-12.416l393.568 393.632c-7.552 20.704-12.352 42.912-12.352 66.304l1.344 12.928c6.656 99.872 88.928 178.88 190.464 178.88 29.536 0 57.28-7.104 82.208-19.168l-127.424-127.424c-6.656-6.656-11.328-14.624-14.528-22.944-8.384-22.624-3.84-49.152 14.528-67.456 12.352-12.48 28.832-18.72 45.216-18.72 7.552 0 14.976 1.6 22.24 4.352 8.384 3.136 16.352 7.616 22.944 14.4l127.424 127.424c12.032-25.056 19.168-52.672 19.168-82.208-0.064-101.536-79.136-183.744-178.944-190.528z" fill="#444444" p-id="30828"></path></svg>