<?xml version="1.0" standalone="no"?><!DOCTYPE svg PUBLIC "-//W3C//DTD SVG 1.1//EN" "http://www.w3.org/Graphics/SVG/1.1/DTD/svg11.dtd"><svg t="1731840989466" class="icon" viewBox="0 0 1067 1024" version="1.1" xmlns="http://www.w3.org/2000/svg" p-id="15279" xmlns:xlink="http://www.w3.org/1999/xlink" width="20px" height="20px"><path d="M401.486019 118.403657c40.238324 35.810743 72.0896 48.942324 95.719619 39.399619 35.449905-14.331124 46.070248 64.468114 35.449905 75.210362-6.582857 6.621867-3.988724 26.66301 7.74339 60.074667l0.199924 0.516876 9.103848-7.10461c136.201752-104.106667 249.173333-93.2864 339.065905 32.455924 16.047543 30.417676 28.345295 60.396495 36.883504 89.897448l86.503619 28.901181-74.244876 30.934552 0.03901 0.199924 50.258895 16.764343-47.903695 20.002133c0.877714 118.715733-63.229562 229.532038-192.4096 332.522057-194.56 155.160381-425.847467 119.354514-693.784381-107.422476 67.388952-19.163429 145.700571-63.029638 235.003124-131.569371-43.154286-45.509486-81.315352-115.048838-114.488077-208.618057 66.545371 6.787657 123.630933 13.775238 171.25181 20.879847a859.565105 859.565105 0 0 1-47.182019-110.416457c76.322133 7.826286 140.229486 15.80861 191.648914 24.029867-10.420419-18.158933-27.384686-61.752076-35.693714-81.310476-7.977448-18.80259-55.803124-15.447771-82.2272-12.614705l-2.555124 0.277943 5.749029-1.794438c31.934171-10.981181 59.718705-28.984076 75.605333-26.268039l3.432838 0.999619c16.564419 7.182629 30.734629 20.2752 42.554514 39.39962-9.45981-28.662248-14.175086-45.387581-14.175085-50.136991 0-7.187505-81.54941-7.187505-99.279239-14.336-10.732495-4.349562-16.564419-17.559162-17.559161-39.638552l-0.160915-6.904686 35.449905-14.331124zM160.816762 48.57661c5.480838 33.34339 31.57821 58.32899 78.345752 74.995809 9.147733 3.257295 18.344229 4.87619 27.535848 5.300419l8.547962-0.048762-6.777905 1.857829c-34.87939 9.518324-90.745905 24.61501-105.237943 19.319466l-2.413714-1.438476c-7.61661-7.709257-17.603048-30.793143-29.905676-69.193143l-3.11101-9.986438 32.967924-20.806704h0.048762z" fill="#000000" p-id="15280"></path><path d="M652.643962 400.091429l33.796876-9.942553 10.937295-34.786743 10.454553 34.274743 34.279619 10.454553-32.80701 8.947809-11.927162 35.781486-11.932038-35.781486z" fill="#FFFFFF" p-id="15281"></path></svg>